:SAMPLES-PER-SECOND 30
:FULLY-SPECIFIED
:DEGREES
398
root  -35.9332 38.7987 -26.9782 0.31662 -57.6051 -8.21657
RightUpLeg  21.9593 -13.6432 -1.85267
RightLeg  9.5185 -11.0256 2.26189
RightFoot  -17.3771 0.384128 9.48673
RightToes  5.82063e-011 0 -3.6325e-017
Spine  3.52791 1.8173 8.95082
Spine1  11.7946 3.77021 -5.81554
HEad  3.43612 20.1722 -3.27448
LeftShoulder1  -0.109235 3.80395 -30.0313
LeftArm  1.97296 14.2307 -40.134
LeftForeArm  19.9447 -16.5068 -6.07176
LeftHand  -0.0187441 1.52372 0.287709
RightShoulder  -0.588631 -5.23804 27.2024
RightArm  15.5946 -0.489912 46.9683
RightForeArm  5.49313 11.5649 7.06692
RightHand  -0.774464 6.31393 -7.99909
LeftUpLeg  -12.318 4.51419 -3.75449
LeftLeg  2.03629 28.7389 -2.66321
LeftFoot  -0.198093 -0.908165 9.05298
LeftToes  2.58842e-009 -1.78069e-010 3.24654e-012
399
root  -37.0941 38.6343 -26.4782 -1.89894 -56.9193 -5.7975
RightUpLeg  22.617 -20.8388 -6.63136
RightLeg  15.1555 -2.48547 0.488743
RightFoot  -18.2514 0.672982 13.0324
RightToes  5.82063e-011 0 -3.6325e-017
Spine  3.13966 2.43532 6.58255
Spine1  11.8267 4.32601 -6.24271
HEad  4.25126 20.9785 -3.20078
LeftShoulder1  -0.235825 4.14123 -30.9149
LeftArm  1.15513 14.238 -38.5944
LeftForeArm  19.8648 -15.6522 -6.38385
LeftHand  -0.0411681 0.802653 0.989101
RightShoulder  -0.551675 -5.11798 27.3836
RightArm  13.8263 -2.17365 48.0327
RightForeArm  8.80483 9.1958 7.23557
RightHand  -0.689328 5.73592 -7.49651
LeftUpLeg  -14.0004 4.89052 -5.31729
LeftLeg  8.71712 28.2729 0.236819
LeftFoot  1.91777 -2.00363 17.1857
LeftToes  2.58842e-009 -1.78069e-010 3.24654e-012
400
root  -38.1333 38.4987 -25.9285 -5.03635 -54.6833 -2.60013
RightUpLeg  21.3812 -23.1716 -10.4147
RightLeg  24.0973 1.16116 0.12965
RightFoot  -17.065 0.835964 19.7454
RightToes  5.82063e-011 0 -3.6325e-017
Spine  4.10855 2.3098 4.73613
Spine1  10.6364 4.3661 -7.81
HEad  5.19143 21.6668 -3.35217
LeftShoulder1  -0.216431 4.09234 -30.6465
LeftArm  -0.463228 14.4089 -38.0807
LeftForeArm  19.4364 -14.3118 -6.7795
LeftHand  -0.0482455 2.50369 1.38826
RightShoulder  -0.626932 -5.31032 27.9883
RightArm  12.6347 -3.81773 49.0124
RightForeArm  11.4783 7.00317 7.1697
RightHand  -0.578007 5.90044 -6.2594
LeftUpLeg  -14.3532 6.84378 -7.77418
LeftLeg  14.4034 24.2437 2.40904
LeftFoot  0.265146 -1.86941 18.2142
LeftToes  2.58842e-009 -1.78069e-010 3.24654e-012
401
root  -39.0289 38.4723 -25.3753 -6.26399 -52.3696 -1.17361
RightUpLeg  16.6995 -21.2623 -11.2555
RightLeg  35.5461 1.12036 0.614807
RightFoot  -10.3513 -0.214173 24.1962
RightToes  5.82063e-011 0 -3.6325e-017
Spine  5.03184 2.2832 3.91701
Spine1  9.57589 4.31509 -8.74586
HEad  5.53193 22.9469 -4.89922
LeftShoulder1  -0.219592 4.10292 -30.5109
LeftArm  -3.13283 13.9824 -38.6758
LeftForeArm  21.2312 -12.5777 -6.94327
LeftHand  -0.0291592 3.77792 0.726199
RightShoulder  -0.636764 -5.34503 27.8559
RightArm  11.9952 -5.89626 49.7414
RightForeArm  11.603 6.56231 6.94733
RightHand  -0.654954 5.57699 -7.23746
LeftUpLeg  -13.8288 8.79507 -9.45549
LeftLeg  16.9905 20.5952 3.32122
LeftFoot  -1.50268 -1.62844 18.8269
LeftToes  2.58842e-009 -1.78069e-010 3.24654e-012
402
root  -39.8238 38.5457 -24.7932 -7.14409 -50.6955 -0.336121
RightUpLeg  10.1079 -17.3203 -10.8345
RightLeg  47.3353 1.91753 1.9551
RightFoot  0.707136 -2.04732 19.3987
RightToes  5.82063e-011 0 -3.6325e-017
Spine  5.79743 2.36576 4.32844
Spine1  9.47184 4.68644 -10.1338
HEad  4.31571 24.2364 -7.01909
LeftShoulder1  -0.192161 4.03094 -30.3214
LeftArm  -4.40045 13.2438 -39.6913
LeftForeArm  22.3732 -11.804 -6.91002
LeftHand  -0.0180887 3.32863 0.000724391
RightShoulder  -0.544012 -5.11084 27.0761
RightArm  12.1015 -7.19803 50.4871
RightForeArm  10.91 7.23049 7.0184
RightHand  -0.689086 5.47336 -7.65613
LeftUpLeg  -12.2533 7.85924 -10.1168
LeftLeg  17.9046 20.0455 3.63349
LeftFoot  -3.03902 -1.33645 18.5039
LeftToes  2.58842e-009 -1.78069e-010 3.24654e-012
403
root  -40.5215 38.5292 -24.2705 -8.60893 -49.197 1.25932
RightUpLeg  4.08686 -12.8556 -10.9293
RightLeg  56.4067 2.97491 4.36826
RightFoot  5.5573 -2.31056 15.5918
RightToes  5.82063e-011 0 -3.6325e-017
Spine  6.65659 2.62514 3.38159
Spine1  9.70045 4.85945 -10.8051
HEad  2.8092 25.6297 -8.42931
LeftShoulder1  -0.218158 4.0942 -30.822
LeftArm  -2.23625 12.7234 -39.9256
LeftForeArm  21.325 -13.0034 -6.99424
LeftHand  -0.0309708 3.70699 0.753072
RightShoulder  -0.493258 -4.95719 27.0966
RightArm  13.7378 -7.18526 49.8891
RightForeArm  10.4901 8.6212 7.38463
RightHand  -0.737867 5.93745 -7.85703
LeftUpLeg  -10.8629 6.49454 -11.11
LeftLeg  19.0165 20.59 3.90043
LeftFoot  -4.85903 -0.982055 17.6156
LeftToes  2.58842e-009 -1.78069e-010 3.24654e-012
404
root  -41.2354 38.6052 -23.7541 -8.75584 -45.5524 1.33177
RightUpLeg  0.0237693 -10.3921 -10.6436
RightLeg  61.2593 3.12846 5.64584
RightFoot  2.27728 -1.87909 15.7784
RightToes  5.82063e-011 0 -3.6325e-017
Spine  7.49666 2.11204 2.20371
Spine1  9.25648 3.87888 -9.99857
HEad  2.00864 27.2516 -9.04066
LeftShoulder1  -0.23608 4.14148 -30.8947
LeftArm  1.37317 12.6694 -40.5118
LeftForeArm  19.6313 -15.2302 -6.70425
LeftHand  -0.0484094 3.53745 1.97285
RightShoulder  -0.518764 -5.03637 27.0368
RightArm  15.6754 -7.03122 48.9966
RightForeArm  11.2198 10.3289 7.42294
RightHand  -0.623049 5.27209 -7.08285
LeftUpLeg  -9.10574 5.26464 -11.8161
LeftLeg  19.3805 18.8202 4.01538
LeftFoot  -6.53249 -0.645349 16.2546
LeftToes  2.58842e-009 -1.78069e-010 3.24654e-012
405
root  -41.9588 38.7301 -23.2027 -8.40701 -41.7777 0.524063
RightUpLeg  -3.12528 -7.9025 -9.92886
RightLeg  62.5152 2.72374 5.15372
RightFoot  1.96584 -1.63128 14.0313
RightToes  5.82063e-011 0 -3.6325e-017
Spine  7.51033 1.75678 1.76576
Spine1  9.76107 3.15654 -9.00319
HEad  1.80552 26.7632 -8.08
LeftShoulder1  -0.183448 4.00184 -30.7152
LeftArm  4.48258 12.1318 -41.4744
LeftForeArm  19.1651 -17.2275 -6.05468
LeftHand  -0.0426245 2.65756 1.23688
RightShoulder  -0.55967 -5.1609 27.0024
RightArm  16.8448 -6.56397 47.9675
RightForeArm  9.20759 11.4926 7.308
RightHand  -0.730549 5.59678 -8.01762
LeftUpLeg  -7.00585 4.51556 -11.7565
LeftLeg  19.1478 15.3659 3.36516
LeftFoot  -6.70034 -0.683482 17.7077
LeftToes  2.58842e-009 -1.78069e-010 3.24654e-012
